<svg xmlns="http://www.w3.org/2000/svg" width="24px" height="24px" viewBox="0 -960 960 960" role="img" aria-label="Two-tone crown">
    <defs>
        <!-- Hard split at 50% (slight overlap avoids a hairline at the seam) -->
        <linearGradient id="crownTwoTone" x1="0" y1="0" x2="1" y2="0" gradientUnits="objectBoundingBox">
            <stop offset="0%"    stop-color="#caa322"/>
            <stop offset="49.8%" stop-color="#caa322"/>
            <stop offset="50.2%" stop-color="#ffd64f"/>
            <stop offset="100%"  stop-color="#ffd64f"/>
        </linearGradient>
    </defs>
    <path fill="url(#crownTwoTone)"
          d="M200-160v-80h560v80H200Zm0-140-51-321q-2 0-4.5.5t-4.5.5q-25 0-42.5-17.5T80-680q0-25 17.5-42.5T140-740q25 0 42.5 17.5T200-680q0 7-1.5 13t-3.5 11l125 56 125-171q-11-8-18-21t-7-28q0-25 17.5-42.5T480-880q25 0 42.5 17.5T540-820q0 15-7 28t-18 21l125 171 125-56q-2-5-3.5-11t-1.5-13q0-25 17.5-42.5T820-740q25 0 42.5 17.5T880-680q0 25-17.5 42.5T820-620q-2 0-4.5-.5t-4.5-.5l-51 321H200Z"/>
</svg>
